<?xml version="1.0" encoding="UTF-8"?>
<svg id="Layer_2" data-name="Layer 2" xmlns="http://www.w3.org/2000/svg" viewBox="0 0 312.47 87.19">
  <defs>
    <style>
      .cls-1 {
        fill: #fcde4e;
      }

      .cls-2 {
        fill: #fede4e;
      }

      .cls-3 {
        fill: #841618;
      }

      .cls-4 {
        fill: #fdde4e;
      }
    </style>
  </defs>
  <g id="Layer_1-2" data-name="Layer 1">
    <g>
      <g>
        <path class="cls-3" d="M54.84,23.72c.49-.03.74-.04,1.23-.07,8.57-.49,16.13,4.69,18.38,12.8.48,1.73.83,3.52,1.06,5.35.01.11.03.23.04.34.15,1.36.23,2.76.23,4.18,0,2.89-.32,5.74-.94,8.48-3.74,16.59-19.6,31.13-36.95,31.57-16.69.42-33.47-12.07-36.95-28.66C.38,55.05,0,52.2,0,49.31c0-1.32.07-2.63.2-3.92.02-.16.15-.28.31-.28,1.42,0,2.13,0,3.55,0,6.52-.03,12.57,3.35,15.71,8.99.66,1.19,1.42,2.31,2.27,3.34,3.83,4.66,9.4,7.48,15.6,7.23,6.2-.25,11.77-3.53,15.6-8.5,2.77-3.59,4.63-8.06,5.15-12.9h0c.02-.19-.12-.34-.31-.33-8.81.52-13.21.74-22.02,1.09-.17,0-.31-.13-.31-.3h0c.19-10.62,8.54-19.24,19.09-20Z"/>
        <path class="cls-4" d="M35.9,24.83c-.54,8.75-8.37,16-17.95,16.2C8.37,41.23.54,34.3,0,25.57"/>
      </g>
      <g>
        <path class="cls-3" d="M210.52,5.03c.26-.02.4-.03.66-.06,4.61-.39,8.67,2.35,9.88,6.7.26.93.45,1.89.57,2.87,0,.06.02.12.02.18.08.73.12,1.48.12,2.25,0,1.55-.2,3.1-.5,4.56-1.76,8.55-11.13,16.89-19.87,17.53-9.56.7-17.81-5.15-19.87-14.03-.33-1.42-.5-2.92-.5-4.48,0-.71.04-1.42.11-2.12,0-.09.08-.16.17-.17.76-.07,1.14-.11,1.91-.18,3.51-.33,6.76,1.25,8.45,4.17.36.62.77,1.19,1.22,1.71,2.06,2.37,5.05,3.71,8.39,3.41,3.33-.3,6.33-2.16,8.39-4.9,1.49-1.98,2.49-4.4,2.77-7.01h0c.01-.1-.07-.18-.17-.17-4.74.4-7.11.6-11.84,1.03-.09,0-.17-.06-.17-.15h0c0-5.67,4.6-10.68,10.26-11.16Z"/>
        <path class="cls-1" d="M201.25,6.67c-.3,4.94-4.71,9.24-10.11,9.73s-9.81-2.99-10.11-7.88"/>
        <path class="cls-2" d="M232.82,43.24c-.51,16.17-16.32,27.58-30.95,29.52-15.09,2-29.36-9.16-30.95-24.13.09,0,.14-.01.23-.02,3.39,10.3,15.07,14.18,24.96,13.23,10.56-1.02,21.58-7.03,24.96-17.7,4.7-.38,7.06-.56,11.76-.9Z"/>
        <g>
          <path class="cls-3" d="M112.59,52.48c4.03-.36,6.04-.54,10.07-.91v28.64c-4.03.37-6.04.55-10.07.91v-9.95c-7.23.64-10.84.96-18.07,1.54v9.95c-4.03.33-6.04.49-10.07.79v-28.64c4.03-.31,6.04-.47,10.07-.79v9.91c7.23-.59,10.84-.9,18.07-1.54v-9.91Z"/>
          <path class="cls-3" d="M144.71,49.04c2.74-.26,5.16-.35,7.26-.27,2.1.08,4.05.38,5.84.88,1.79.51,3.25,1.26,4.39,2.25,1.14.99,2.02,2.29,2.66,3.9.63,1.61.95,3.55.95,5.8s-.28,4.19-.84,5.87c-.56,1.69-1.37,3.14-2.42,4.37-1.05,1.23-2.44,2.27-4.15,3.13-1.71.86-3.65,1.54-5.81,2.05-2.16.51-4.68.9-7.56,1.18-7.15.69-12.34-.05-15.58-2.21-3.24-2.16-4.86-5.82-4.86-10.99,0-4.79,1.66-8.48,4.97-11.09,3.31-2.61,8.37-4.24,15.17-4.89ZM145.1,70.7c3.05-.29,5.42-1.11,7.09-2.44,1.67-1.33,2.51-3.19,2.51-5.59s-.88-3.99-2.64-5.03c-1.76-1.04-4.12-1.42-7.09-1.13-1.56.15-2.92.44-4.11.86-1.18.43-2.15.99-2.92,1.69-.76.7-1.33,1.5-1.71,2.41-.37.91-.56,1.92-.56,3.03,0,2.15.79,3.79,2.38,4.93,1.58,1.14,3.93,1.56,7.05,1.26Z"/>
          <path class="cls-3" d="M256.96,40.08c2.71-.15,5.03-.21,6.96-.19,1.93.02,3.64.17,5.14.42,1.5.26,2.7.61,3.61,1.04.91.44,1.66,1.05,2.25,1.84.59.79,1,1.68,1.23,2.66.23.98.35,2.2.35,3.64-4.29.17-6.43.26-10.72.48,0-.43-.08-.77-.24-1.01-.16-.24-.51-.46-1.06-.66-.55-.2-1.41-.32-2.59-.36-1.18-.03-2.74,0-4.67.11-2.57.14-4.44.31-5.62.49-1.18.18-1.93.36-2.25.55-.32.18-.49.49-.48.89.01.34.42.56,1.19.64.76.08,3.06.14,6.89.22.06,0,.1,0,.13.03,7.61.14,12.44.45,14.48.82,2.68.48,4.41,1.43,5.19,2.84.52.96.78,2.36.78,4.21,0,1.31-.09,2.38-.28,3.23-.19.85-.56,1.64-1.12,2.37-.56.73-1.29,1.31-2.18,1.74-.89.43-2.13.82-3.72,1.16-1.58.34-3.39.61-5.42.81-2.03.2-4.56.38-7.59.55-2.07.12-3.87.2-5.38.23-1.51.04-2.92.03-4.24-.02-1.31-.05-2.4-.16-3.26-.32-.86-.16-1.64-.41-2.33-.74-.69-.33-1.23-.71-1.62-1.13-.39-.42-.71-.98-.97-1.67-.26-.69-.43-1.42-.52-2.21-.09-.78-.13-1.72-.13-2.81,4.17-.29,6.25-.43,10.42-.69,0,.46.08.81.24,1.05.16.23.54.42,1.15.54.61.13,1.45.18,2.53.17,1.08,0,2.61-.07,4.6-.18.23-.01.58-.03,1.04-.06,3.28-.18,5.28-.33,5.99-.48.71-.14,1.06-.51,1.06-1.11,0-.35-.24-.57-.73-.66-.49-.08-1.85-.13-4.06-.16-1.61-.02-2.96-.04-4.02-.07-1.7-.04-3-.07-3.91-.1-.91-.03-2.03-.07-3.37-.14-1.34-.07-2.36-.15-3.05-.26-.69-.1-1.51-.24-2.46-.41-.95-.17-1.66-.39-2.14-.65-.48-.27-.99-.59-1.56-.96-.56-.37-.97-.8-1.21-1.3-.24-.5-.46-1.08-.65-1.73-.19-.65-.28-1.37-.28-2.16,0-.95.07-1.81.22-2.58.14-.77.35-1.47.61-2.08.26-.62.62-1.17,1.08-1.67.46-.49.95-.93,1.47-1.3.52-.37,1.19-.71,2.01-.99.82-.29,1.64-.52,2.46-.71.82-.19,1.84-.36,3.05-.52,1.21-.16,2.4-.28,3.57-.38,1.17-.1,2.56-.19,4.17-.28Z"/>
          <path class="cls-3" d="M278.98,38.96c11.18-.35,22.32-.57,33.5-.64,0,3.18,0,4.77,0,7.95-9.37,0-14.06.07-23.43.32,0,1.01,0,1.52,0,2.53,8.78-.24,13.17-.31,21.96-.32,0,3.05,0,4.58,0,7.63-8.78.02-13.17.09-21.96.32,0,1.03,0,1.54,0,2.57,9.37-.25,14.06-.32,23.43-.32,0,3.18,0,4.77,0,7.95-11.18.08-22.32.3-33.5.64,0-9.55,0-19.09,0-28.64Z"/>
        </g>
        <g>
          <path class="cls-3" d="M84.8,49.73v-28.64c4.03-.31,6.04-.47,10.07-.8v28.64c-4.03.33-6.04.49-10.07.8Z"/>
          <path class="cls-3" d="M123.44,46.43c-3.32.31-4.98.46-8.3.76-2.99-4.76-4.49-7.14-7.48-11.9v12.56c-4.03.35-6.04.52-10.07.86v-28.64c4.81-.4,7.21-.61,12.02-1.03,3.92,6,5.89,9,9.81,14.99,3.92-6.71,5.89-10.06,9.81-16.78,4.82-.45,7.24-.68,12.06-1.14v28.64c-4.03.39-6.04.58-10.07.96v-12.65c-3.11,5.35-4.67,8.03-7.78,13.37Z"/>
          <path class="cls-3" d="M172.07,13.23c4.54,9.09,9.08,18.18,13.62,27.27-4.67.43-7,.66-11.67,1.1-.92-1.84-1.37-2.76-2.29-4.59-6,.57-9,.86-15,1.44-.92,2.01-1.37,3.02-2.29,5.03-4.63.45-6.95.67-11.58,1.12,4.52-9.95,9.05-19.91,13.57-29.86,6.26-.6,9.39-.91,15.65-1.51ZM160.31,29.86c3.13-.3,4.69-.45,7.82-.75-1.57-2.85-2.36-4.28-3.93-7.13-1.56,3.15-2.33,4.73-3.89,7.88Z"/>
          <path class="cls-3" d="M224.89,37.1c0-9.55,0-19.09,0-28.64,4.03-.31,6.04-.47,10.07-.76,0,9.55,0,19.09,0,28.64-4.03.29-6.04.44-10.07.76Z"/>
          <path class="cls-3" d="M277.01,33.96c-5.5.21-8.25.34-13.75.62-5.95-6.6-8.92-9.88-14.87-16.4,0,6.9,0,10.35,0,17.25-4.03.25-6.04.39-10.07.67,0-9.55,0-19.09,0-28.64,5.62-.39,8.43-.58,14.05-.91,5.84,6.44,8.77,9.67,14.61,16.18,0-6.79,0-10.18,0-16.97,4.01-.19,6.02-.28,10.03-.44,0,9.55,0,19.09,0,28.64Z"/>
          <path class="cls-3" d="M278.98,5.25c11.18-.35,22.32-.57,33.5-.64,0,3.18,0,4.77,0,7.95-9.37,0-14.06.07-23.43.32,0,1.01,0,1.52,0,2.53,8.78-.24,13.17-.31,21.96-.32,0,3.05,0,4.58,0,7.63-8.78.02-13.17.09-21.96.32v2.57c9.37-.25,14.06-.32,23.43-.32,0,3.18,0,4.77,0,7.95-11.18.08-22.32.3-33.5.64,0-9.55,0-19.09,0-28.64Z"/>
        </g>
      </g>
    </g>
  </g>
</svg>