<?xml version="1.0" encoding="UTF-8"?>
<svg id="Layer_2" data-name="Layer 2" xmlns="http://www.w3.org/2000/svg" viewBox="0 0 177.16 144.56">
  <defs>
    <style>
      .cls-1 {
        fill: #fcde4e;
      }

      .cls-2 {
        fill: #841719;
      }
    </style>
  </defs>
  <g id="Layer_1-2" data-name="Layer 1">
    <g>
      <path class="cls-2" d="M128.22,0h2.87c20.03,0,37.71,13.33,42.97,32.67,1.12,4.12,1.95,8.36,2.47,12.69.03.27.07.54.09.81.36,3.22.54,6.5.54,9.82,0,6.76-.76,13.34-2.19,19.66-8.94,39.46-44.22,68.91-86.38,68.91S11.14,115.1,2.19,75.65C.76,69.32,0,62.74,0,55.98,0,52.89.16,49.83.47,46.82c.04-.37.35-.65.72-.65h8.29c15.24,0,29.4,8.18,36.74,21.54,1.55,2.83,3.33,5.48,5.31,7.94,8.95,11.12,21.98,18.11,36.48,18.11s27.52-7,36.47-18.11c6.47-8.04,10.82-18.23,12.05-29.48h0c.05-.43-.29-.81-.72-.81h-51.49c-.4,0-.73-.33-.73-.73h0C83.59,19.98,103.57,0,128.22,0Z"/>
      <path class="cls-1" d="M83.93.47c-1.25,20.41-19.57,36.6-41.97,36.6-22.4,0-40.71-16.19-41.97-36.6"/>
    </g>
  </g>
</svg>