<?xml version="1.0" encoding="UTF-8"?>
<svg id="Layer_2" data-name="Layer 2" xmlns="http://www.w3.org/2000/svg" viewBox="0 0 138.77 113.24">
  <defs>
    <style>
      .cls-1 {
        fill: #fcde4e;
      }

      .cls-2 {
        fill: #fafbfb;
      }
    </style>
  </defs>
  <g id="Layer_1-2" data-name="Layer 1">
    <g>
      <path class="cls-2" d="M100.44,0h2.25c15.69,0,29.54,10.45,33.66,25.59.88,3.23,1.53,6.55,1.93,9.94.03.21.05.42.07.63.28,2.53.42,5.09.42,7.69,0,5.29-.59,10.45-1.72,15.4-7,30.91-34.64,53.98-67.67,53.98S8.72,90.17,1.72,59.26C.59,54.3,0,49.15,0,43.85,0,41.43.12,39.03.37,36.67c.03-.29.28-.51.57-.51h6.49c11.94,0,23.03,6.41,28.78,16.88,1.22,2.21,2.61,4.3,4.16,6.22,7.01,8.71,17.22,14.19,28.57,14.19s21.56-5.48,28.57-14.19c5.07-6.3,8.47-14.28,9.44-23.09h0c.04-.34-.23-.63-.57-.63h-40.34c-.31,0-.57-.25-.57-.57h0C65.48,15.65,81.13,0,100.44,0Z"/>
      <path class="cls-1" d="M65.75.37c-.98,15.99-15.33,28.67-32.87,28.67-17.55,0-31.89-12.68-32.87-28.67"/>
    </g>
  </g>
</svg>